# xmcd
#
# Track frame offsets: 
#        150
#        13986
#        27080
#        38547
#        49897
#        62123
#        74257
#        85796
#        98101
#        109867
#        121823
#        133448
#        145639
#        158845
#        170493
#        183095
#        195332
#        206764
#        219201
#        231358
#        243957
#        255153
#        266613
#        278233
#        289022
#        301791
#        314426
#        326427
#        339480
#
# Disc length: 4700 seconds
#
# Revision: 0
# Processed by: cddbd v1.5.2PL0 Copyright (c) Steve Scherf et al.
# Submitted via: ExactAudioCopyFreeDBPlugin 1.0
#
DISCID=98125a1d
DTITLE=Roy Acuff and The Smoky Mountain Boys - The King of Country Music
DTITLE=Various Artist - Disc 2
DYEAR=1900
DGENRE=Country
TTITLE0=Sad Memories
TTITLE1=Steel Guitar Blues
TTITLE2=Old Fashioned Love
TTITLE3=My Gal Sal
TTITLE4=The Great Speckled Bird #2 (take 1)
TTITLE5=Tell Mother I'll Be There
TTITLE6=Down In Union Country
TTITLE7=The Rising Sun
TTITLE8=What Would You Do With Gabriel's Trumpet
TTITLE9=Shout, Oh Lulu
TTITLE10=Goodbye Brownie
TTITLE11=Blue Ridge Sweetheart
TTITLE12=One Old Shirt
TTITLE13=Bonnie Blue Eyes
TTITLE14=The Automobile of Life
TTITLE15=Smoky Mountain Rag (instrumental)
TTITLE16=Wabash Blues (instrumental)
TTITLE17=That Beautiful Picture
TTITLE18=The Great Shining Light
TTITLE19=Honky Tonk Mammas
TTITLE20=Haven Of Dreams
TTITLE21=Answer to 'Sparkling Blue Eyes'
TTITLE22=Smoky Mountain Moon
TTITLE23=Fly, Birdie, Fly
TTITLE24=Ida Red
TTITLE25=Beautiful Brown Eyes
TTITLE26=Mother's Prayers Guide Me
TTITLE27=Living On The Mountain, Baby Mine
TTITLE28=A Vagabond's Dream
EXTD=
EXTT0=
EXTT1=
EXTT2=
EXTT3=
EXTT4=
EXTT5=
EXTT6=
EXTT7=
EXTT8=
EXTT9=
EXTT10=
EXTT11=
EXTT12=
EXTT13=
EXTT14=
EXTT15=
EXTT16=
EXTT17=
EXTT18=
EXTT19=
EXTT20=
EXTT21=
EXTT22=
EXTT23=
EXTT24=
EXTT25=
EXTT26=
EXTT27=
EXTT28=
PLAYORDER=
